<svg width="18" height="19" viewBox="0 0 18 19" fill="none" xmlns="http://www.w3.org/2000/svg">
<path d="M12.75 14.3226H9.75L6.41249 16.5425C5.91749 16.8725 5.25 16.5201 5.25 15.9201V14.3226C3 14.3226 1.5 12.8226 1.5 10.5726V6.07251C1.5 3.82251 3 2.32251 5.25 2.32251H12.75C15 2.32251 16.5 3.82251 16.5 6.07251V10.5726C16.5 12.8226 15 14.3226 12.75 14.3226Z" stroke="#A3A6AE" stroke-width="1.5" stroke-miterlimit="10" stroke-linecap="round" stroke-linejoin="round"/>
<path d="M9.00011 9.02002V8.86255C9.00011 8.35255 9.31513 8.08254 9.63013 7.86504C9.93763 7.65504 10.2451 7.38505 10.2451 6.89005C10.2451 6.20005 9.69011 5.64502 9.00011 5.64502C8.31011 5.64502 7.75513 6.20005 7.75513 6.89005" stroke="#A3A6AE" stroke-width="1.5" stroke-linecap="round" stroke-linejoin="round"/>
<path d="M8.99662 10.8125H9.00337" stroke="#A3A6AE" stroke-width="1.5" stroke-linecap="round" stroke-linejoin="round"/>
</svg>
